<?xml version="1.0" encoding="utf-8"?><!-- Uploaded to: SVG Repo, www.svgrepo.com, Generator: SVG Repo Mixer Tools -->
<svg width="800px" height="800px" viewBox="0 0 16 16" xmlns="http://www.w3.org/2000/svg">
  <path fill-rule="evenodd" clip-rule="evenodd" d="M8.717.303a1.002 1.002 0 00-1.434 0l-.64.656a1.002 1.002 0 01-.989.265L4.773.975a1.002 1.002 0 00-1.243.718l-.226.887a1 1 0 01-.724.724l-.887.226c-.546.139-.87.7-.718 1.243l.249.881c.1.354-.002.733-.265.99l-.656.639a1.002 1.002 0 000 1.434l.656.64c.263.256.364.635.265.989l-.249.881a1.002 1.002 0 00.718 1.243l.887.226a1 1 0 01.724.724l.226.887c.139.546.7.87 1.243.718l.881-.249c.354-.1.733.002.99.265l.639.656a1.002 1.002 0 001.434 0l.64-.656c.256-.263.635-.364.989-.265l.881.249a1.001 1.001 0 001.243-.718l.226-.887a1 1 0 01.724-.724l.887-.226c.546-.139.87-.7.718-1.243l-.249-.881c-.1-.354.002-.733.265-.99l.656-.639a1.002 1.002 0 000-1.434l-.656-.64a1.002 1.002 0 01-.265-.989l.249-.881a1.002 1.002 0 00-.718-1.243l-.887-.226a1.002 1.002 0 01-.724-.724l-.226-.887c-.139-.546-.7-.87-1.243-.718l-.881.249c-.354.1-.733-.002-.99-.265L8.718.303zM7 4h2v8H7V6H6V5l1-1z" fill="#000000"/>
</svg>