<?xml version="1.0" encoding="utf-8"?><!-- Uploaded to: SVG Repo, www.svgrepo.com, Generator: SVG Repo Mixer Tools -->
<svg width="00px" height="800px" viewBox="0 -0.5 25 25" fill="none" xmlns="http://www.w3.org/2000/svg">
<path fill-rule="evenodd" clip-rule="evenodd" d="M5.5 12C5.49988 14.613 6.95512 17.0085 9.2741 18.2127C11.5931 19.4169 14.3897 19.2292 16.527 17.726L19.5 18V12C19.5 8.13401 16.366 5 12.5 5C8.63401 5 5.5 8.13401 5.5 12Z" stroke="#000000" stroke-width="1.5" stroke-linecap="round" stroke-linejoin="round"/>
<path d="M9.5 13.25C9.08579 13.25 8.75 13.5858 8.75 14C8.75 14.4142 9.08579 14.75 9.5 14.75V13.25ZM13.5 14.75C13.9142 14.75 14.25 14.4142 14.25 14C14.25 13.5858 13.9142 13.25 13.5 13.25V14.75ZM9.5 10.25C9.08579 10.25 8.75 10.5858 8.75 11C8.75 11.4142 9.08579 11.75 9.5 11.75V10.25ZM15.5 11.75C15.9142 11.75 16.25 11.4142 16.25 11C16.25 10.5858 15.9142 10.25 15.5 10.25V11.75ZM9.5 14.75H13.5V13.25H9.5V14.75ZM9.5 11.75H15.5V10.25H9.5V11.75Z" fill="#000000"/>
</svg>